<svg xmlns="http://www.w3.org/2000/svg" xmlns:xlink="http://www.w3.org/1999/xlink" width="200" height="200" class="icon" p-id="3003" t="1580909323544" version="1.1" viewBox="0 0 1024 1024"><defs><style type="text/css"/></defs><path fill="#58c3fc" d="M96 512L420.266667 187.733333c8.533333-8.533333 8.533333-21.333333 0-29.866666s-21.333333-8.533333-29.866667 0L51.2 497.066667c-4.266667 4.266667-6.4 8.533333-6.4 14.933333 0 6.4 2.133333 10.666667 6.4 14.933333l339.2 339.2c4.266667 4.266667 10.666667 6.4 14.933333 6.4s10.666667-2.133333 14.933334-6.4c8.533333-8.533333 8.533333-21.333333 0-29.866666L96 512zM520.533333 51.2c-12.8 0-21.333333 8.533333-21.333333 21.333333v878.933334c0 12.8 8.533333 21.333333 21.333333 21.333333s21.333333-8.533333 21.333334-21.333333V72.533333c0-12.8-10.666667-21.333333-21.333334-21.333333zM979.2 512c0-6.4-2.133333-10.666667-6.4-14.933333L712.533333 236.8c-8.533333-8.533333-21.333333-8.533333-29.866666 0s-8.533333 21.333333 0 29.866667L928 512 603.733333 836.266667c-8.533333 8.533333-8.533333 21.333333 0 29.866666 4.266667 4.266667 10.666667 6.4 14.933334 6.4s10.666667-2.133333 14.933333-6.4l339.2-339.2c4.266667-4.266667 6.4-8.533333 6.4-14.933333z" p-id="3004"/><path fill="#58c3fc" d="M627.2 179.2m-32 0a32 32 0 1 0 64 0 32 32 0 1 0-64 0Z" p-id="3005"/></svg>